<svg width="100" height="72" viewBox="0 0 100 72" fill="none" xmlns="http://www.w3.org/2000/svg">
<path d="M99.014 27.0882C98.7428 26.8728 96.211 24.9611 90.8716 24.9611C89.4617 24.9673 88.0548 25.0882 86.6646 25.3227C85.6312 18.2396 79.7751 14.7862 79.5125 14.6313L78.0788 13.8044L77.1358 15.1652C75.9549 16.9931 75.0928 19.0081 74.5867 21.1245C73.6307 25.1678 74.2121 28.9655 76.266 32.2122C73.7858 33.5944 69.8072 33.9346 69.002 33.9647H3.13051C1.40996 33.967 0.0138216 35.3574 0.00444499 37.0778C-0.0723876 42.8485 0.905303 48.5848 2.88937 54.0042C5.15852 59.955 8.5344 64.3384 12.9264 67.021C17.8481 70.0351 25.8441 71.7574 34.908 71.7574C39.0026 71.7703 43.0896 71.3997 47.1152 70.6509C52.7113 69.6233 58.0961 67.6674 63.047 64.8637C67.1264 62.5013 70.7979 59.496 73.9194 55.9634C79.1382 50.0557 82.2472 43.4762 84.5593 37.629H85.4807C91.1946 37.629 94.7083 35.3425 96.6459 33.4264C97.9336 32.2044 98.9389 30.7157 99.5912 29.0646L100 27.8676L99.014 27.0882Z" fill="#2496ED"/>
<path d="M9.23628 32.0357H18.0633C18.4891 32.0357 18.8341 31.6906 18.8341 31.265V23.4024C18.8364 22.9766 18.4933 22.6297 18.0677 22.6273C18.0663 22.6273 18.0647 22.6273 18.0633 22.6273H9.23628C8.81055 22.6273 8.46558 22.9724 8.46558 23.398V23.4024V31.2649C8.46558 31.6906 8.81055 32.0357 9.23628 32.0357Z" fill="#2496ED"/>
<path d="M21.4004 32.0357H30.2275C30.6532 32.0357 30.9982 31.6906 30.9982 31.265V23.4024C31.0006 22.9766 30.6574 22.6297 30.2317 22.6273C30.2303 22.6273 30.2288 22.6273 30.2274 22.6273H21.4003C20.9722 22.6273 20.6252 22.9743 20.6252 23.4024V31.2649C20.6278 31.6913 20.974 32.0357 21.4004 32.0357Z" fill="#2496ED"/>
<path d="M33.7496 32.0357H42.5767C43.0024 32.0357 43.3474 31.6906 43.3474 31.265V23.4024C43.3498 22.9766 43.0066 22.6297 42.5809 22.6273C42.5795 22.6273 42.5779 22.6273 42.5765 22.6273H33.7495C33.3237 22.6273 32.9788 22.9724 32.9788 23.398V23.4024V31.2649C32.9789 31.6906 33.324 32.0357 33.7496 32.0357Z" fill="#2496ED"/>
<path d="M45.9526 32.0357H54.7797C55.2061 32.0357 55.5523 31.6915 55.5547 31.265V23.4024C55.5547 22.9743 55.2078 22.6273 54.7797 22.6273H45.9526C45.5269 22.6273 45.1819 22.9724 45.1819 23.398V23.4024V31.2649C45.1819 31.6906 45.527 32.0357 45.9526 32.0357Z" fill="#2496ED"/>
<path d="M21.4004 20.7242H30.2275C30.6538 20.7218 30.9982 20.3754 30.9982 19.9492V12.0866C30.9982 11.6609 30.6531 11.3159 30.2275 11.3159H21.4004C20.9741 11.3159 20.6277 11.6602 20.6254 12.0866V19.9492C20.6277 20.3763 20.9733 20.7218 21.4004 20.7242Z" fill="#2496ED"/>
<path d="M33.7496 20.7242H42.5767C43.0029 20.7218 43.3474 20.3754 43.3474 19.9492V12.0866C43.3474 11.6609 43.0022 11.3159 42.5767 11.3159H33.7496C33.3239 11.3159 32.9789 11.661 32.9789 12.0866V19.9492C32.9789 20.3754 33.3233 20.7218 33.7496 20.7242Z" fill="#2496ED"/>
<path d="M45.9526 20.7242H54.7797C55.2068 20.7218 55.5523 20.3763 55.5547 19.9492V12.0866C55.5523 11.6602 55.2061 11.3159 54.7797 11.3159H45.9526C45.5269 11.3159 45.1819 11.661 45.1819 12.0866V19.9492C45.1819 20.3754 45.5263 20.7218 45.9526 20.7242Z" fill="#2496ED"/>
<path d="M45.9526 9.40842H54.7797C55.2061 9.40842 55.5523 9.064 55.5547 8.63771V0.770705C55.5523 0.344277 55.2061 0 54.7797 0H45.9526C45.5269 0 45.1819 0.344977 45.1819 0.770705V8.63757C45.1819 9.0633 45.527 9.40842 45.9526 9.40842Z" fill="#2496ED"/>
<path d="M58.2631 32.0357H67.0902C67.5166 32.0357 67.8629 31.6915 67.8652 31.265V23.4024C67.8652 22.9743 67.5183 22.6273 67.0902 22.6273H58.2631C57.8376 22.6273 57.4924 22.9724 57.4924 23.398V23.4024V31.2649C57.4924 31.6906 57.8376 32.0357 58.2631 32.0357Z" fill="#2496ED"/>
</svg>
