<svg width="99" height="100" viewBox="0 0 99 100" fill="none" xmlns="http://www.w3.org/2000/svg">
<path d="M92.0601 40.9365C93.3101 37.499 93.6226 34.0615 93.3101 30.624C92.9976 27.1865 91.7476 23.749 90.1851 20.624C87.3726 15.9365 83.3101 12.1865 78.6226 9.99902C73.6226 7.81152 68.3101 7.18652 62.9976 8.43652C60.4976 5.93652 57.6851 3.74902 54.5601 2.18652C51.4351 0.624023 47.6851 -0.000976562 44.2476 -0.000976562C38.9351 -0.000976562 33.6226 1.56152 29.2476 4.68652C24.8726 7.81152 21.7476 12.1865 20.1851 17.1865C16.4351 18.124 13.3101 19.6865 10.1851 21.5615C7.37257 23.749 5.18507 26.5615 3.31007 29.374C0.497572 34.0615 -0.439928 39.374 0.185072 44.6865C0.810072 49.999 2.99757 54.999 6.43507 59.0615C5.18507 62.499 4.87257 65.9365 5.18507 69.374C5.49757 72.8115 6.74757 76.249 8.31007 79.374C11.1226 84.0615 15.1851 87.8115 19.8726 89.999C24.8726 92.1865 30.1851 92.8115 35.4976 91.5615C37.9976 94.0615 40.8101 96.249 43.9351 97.8115C47.0601 99.374 50.8101 99.999 54.2476 99.999C59.5601 99.999 64.8726 98.4365 69.2476 95.3115C73.6226 92.1865 76.7476 87.8115 78.3101 82.8115C81.7476 82.1865 85.1851 80.624 87.9976 78.4365C90.8101 76.249 93.3101 73.749 94.8726 70.624C97.6851 65.9365 98.6226 60.624 97.9976 55.3115C97.3726 49.999 95.4976 44.999 92.0601 40.9365ZM54.5601 93.4365C49.5601 93.4365 45.8101 91.874 42.3726 89.0615C42.3726 89.0615 42.6851 88.749 42.9976 88.749L62.9976 77.1865C63.6226 76.874 63.9351 76.5615 64.2476 75.9365C64.5601 75.3115 64.5601 74.999 64.5601 74.374V46.249L72.9976 51.249V74.374C73.3101 85.3115 64.5601 93.4365 54.5601 93.4365ZM14.2476 76.249C12.0601 72.499 11.1226 68.124 12.0601 63.749C12.0601 63.749 12.3726 64.0615 12.6851 64.0615L32.6851 75.624C33.3101 75.9365 33.6226 75.9365 34.2476 75.9365C34.8726 75.9365 35.4976 75.9365 35.8101 75.624L60.1851 61.5615V71.249L39.8726 83.124C35.4976 85.624 30.4976 86.249 25.8101 84.999C20.8101 83.749 16.7476 80.624 14.2476 76.249ZM8.93507 32.8115C11.1226 29.0615 14.5601 26.249 18.6226 24.6865V25.3115V48.4365C18.6226 49.0615 18.6226 49.6865 18.9351 49.999C19.2476 50.624 19.5601 50.9365 20.1851 51.249L44.5601 65.3115L36.1226 70.3115L16.1226 58.749C11.7476 56.249 8.62257 52.1865 7.37257 47.499C6.12257 42.8115 6.43507 37.1865 8.93507 32.8115ZM77.9976 48.749L53.6226 34.6865L62.0601 29.6865L82.0601 41.249C85.1851 43.124 87.6851 45.624 89.2476 48.749C90.8101 51.874 91.7476 55.3115 91.4351 59.0615C91.1226 62.499 89.8726 65.9365 87.6851 68.749C85.4976 71.5615 82.6851 73.749 79.2476 74.999V51.249C79.2476 50.624 79.2476 49.999 78.9351 49.6865C78.9351 49.6865 78.6226 49.0615 77.9976 48.749ZM86.4351 36.249C86.4351 36.249 86.1226 35.9365 85.8101 35.9365L65.8101 24.374C65.1851 24.0615 64.8726 24.0615 64.2476 24.0615C63.6226 24.0615 62.9976 24.0615 62.6851 24.374L38.3101 38.4365V28.749L58.6226 16.874C61.7476 14.999 65.1851 14.374 68.9351 14.374C72.3726 14.374 75.8101 15.624 78.9351 17.8115C81.7476 19.999 84.2476 22.8115 85.4976 25.9365C86.7476 29.0615 87.0601 32.8115 86.4351 36.249ZM33.9351 53.749L25.4976 48.749V25.3115C25.4976 21.874 26.4351 18.124 28.3101 15.3115C30.1851 12.1865 32.9976 9.99902 36.1226 8.43652C39.2476 6.87402 42.9976 6.24902 46.4351 6.87402C49.8726 7.18652 53.3101 8.74902 56.1226 10.9365C56.1226 10.9365 55.8101 11.249 55.4976 11.249L35.4976 22.8115C34.8726 23.124 34.5601 23.4365 34.2476 24.0615C33.9351 24.6865 33.9351 24.999 33.9351 25.624V53.749ZM38.3101 43.749L49.2476 37.499L60.1851 43.749V56.249L49.2476 62.499L38.3101 56.249V43.749Z" fill="#193718"/>
</svg>
